# xmcd CD database file
# Copyright (C) 1993-1998 Ti Kan
# 
# Track frame offsets:
#     183
#     14538
#     28748
#     50538
#     64855
#     77710
#     90185
#     105768
#     123768
#     139943
# 
# Disc length: 2052 seconds
# 
# Revision: 1
# Processed by: cddbd v1.4b41PL1 Copyright (c) Steve Scherf et al.
# Submitted via: DiscPlay 4.0.4
# 
DISCID=7408020a
DTITLE=Wild Jimbos - Wild Jimbos
DYEAR=1900
DGENRE=
TTITLE0=Howlin' At The Moon
TTITLE1=Sarah In The Summer
TTITLE2=Train In The Canyon
TTITLE3=Let's Talk Dirty In Hawaiian
TTITLE4=Tilt-A-World
TTITLE5=My New Wife
TTITLE6=Unconditional Love
TTITLE7=Bolongo Bay
TTITLE8=Where The Light Comes From
TTITLE9=You And Me Kid
EXTD=
EXTT0=
EXTT1=
EXTT2=
EXTT3=
EXTT4=
EXTT5=
EXTT6=
EXTT7=
EXTT8=
EXTT9=
PLAYORDER=
